<svg width="112" height="99" xmlns="http://www.w3.org/2000/svg" xmlns:xlink="http://www.w3.org/1999/xlink"><title>Logo</title><defs><path d="M0 8.743C0 3.915 3.906 0 8.71 0h94.166c4.81 0 8.71 3.904 8.71 8.743v80.553c0 4.829-3.906 8.743-8.71 8.743H8.71C3.9 98.04 0 94.135 0 89.296V8.743z" id="prefix__a"/><path d="M0 8.743C0 3.915 3.906 0 8.71 0h94.166c4.81 0 8.71 3.904 8.71 8.743v80.553c0 4.829-3.906 8.743-8.71 8.743H8.71C3.9 98.04 0 94.135 0 89.296V8.743z" id="prefix__d"/><linearGradient x1="47.952%" y1="97.595%" x2="47.952%" y2="0%" id="prefix__c"><stop stop-color="#FFB300" offset="0%"/><stop stop-color="#DD3939" offset="61.372%"/><stop stop-color="#FF1BB4" offset="100%"/></linearGradient></defs><g fill="none" fill-rule="evenodd"><g><mask id="prefix__b" fill="#fff"><use xlink:href="#prefix__a"/></mask><g mask="url(#prefix__b)" fill="#000" stroke="url(#prefix__c)" stroke-width="10.458"><path d="M0 8.743C0 3.915 3.906 0 8.71 0h94.166c4.81 0 8.71 3.904 8.71 8.743v80.553c0 4.829-3.906 8.743-8.71 8.743H8.71C3.9 98.04 0 94.135 0 89.296V8.743z"/></g></g><path fill="#FFF" d="M33.192 36.579h16.776v3.281H33.192zM28.076 28.078l-6.892-3.661 4.999-12.446-14.77 13.367 6.49 4.408-4.598 11.7z"/><g><path fill="#FFF" d="M33.192 36.579h16.776v3.281H33.192zM28.076 28.078l-6.892-3.661 4.999-12.446-14.77 13.367 6.49 4.408-4.598 11.7z"/></g></g></svg>