<svg width="101" height="89" xmlns="http://www.w3.org/2000/svg" xmlns:xlink="http://www.w3.org/1999/xlink"><title>Group</title><defs><path d="M0 7.87C0 3.522 3.522 0 7.854 0h84.918c4.338 0 7.854 3.513 7.854 7.87v72.496c0 4.346-3.522 7.87-7.854 7.87H7.854C3.516 88.235 0 84.721 0 80.365V7.87z" id="prefix__a"/><path d="M0 7.87C0 3.522 3.522 0 7.854 0h84.918c4.338 0 7.854 3.513 7.854 7.87v72.496c0 4.346-3.522 7.87-7.854 7.87H7.854C3.516 88.235 0 84.721 0 80.365V7.87z" id="prefix__d"/><linearGradient x1="47.952%" y1="97.595%" x2="47.952%" y2="0%" id="prefix__c"><stop stop-color="#FFB300" offset="0%"/><stop stop-color="#DD3939" offset="61.372%"/><stop stop-color="#FF1BB4" offset="100%"/></linearGradient></defs><g fill="none" fill-rule="evenodd"><g><mask id="prefix__b" fill="#fff"><use xlink:href="#prefix__a"/></mask><g mask="url(#prefix__b)" fill="#000" stroke="url(#prefix__c)" stroke-width="9.412"><path d="M0 7.87C0 3.522 3.522 0 7.854 0h84.918c4.338 0 7.854 3.513 7.854 7.87v72.496c0 4.346-3.522 7.87-7.854 7.87H7.854C3.516 88.235 0 84.721 0 80.365V7.87z"/></g></g><path fill="#FFF" d="M29.932 32.921h15.129v2.953H29.932zM25.319 25.27l-6.216-3.295 4.508-11.201-13.319 12.03 5.852 3.968-4.146 10.529z"/><g><g><mask id="prefix__e" fill="#fff"><use xlink:href="#prefix__d"/></mask><g mask="url(#prefix__e)" fill="#000" stroke="#FFF" stroke-width="9.412"><path d="M0 7.87C0 3.522 3.522 0 7.854 0h84.918c4.338 0 7.854 3.513 7.854 7.87v72.496c0 4.346-3.522 7.87-7.854 7.87H7.854C3.516 88.235 0 84.721 0 80.365V7.87z"/></g></g><path fill="#FFF" d="M29.932 32.921h15.129v2.953H29.932zM25.319 25.27l-6.216-3.295 4.508-11.201-13.319 12.03 5.852 3.968-4.146 10.529z"/></g></g></svg>